<?xml version="1.0" standalone="no"?>
<!DOCTYPE svg PUBLIC "-//W3C//DTD SVG 20010904//EN"
 "http://www.w3.org/TR/2001/REC-SVG-20010904/DTD/svg10.dtd">
<svg version="1.0" xmlns="http://www.w3.org/2000/svg"
 width="2000.000000pt" height="2000.000000pt" viewBox="0 0 2000.000000 2000.000000"
 preserveAspectRatio="xMidYMid meet">
<metadata>
Created by potrace 1.11, written by Peter Selinger 2001-2013
</metadata>
<g transform="translate(0.000000,2000.000000) scale(0.100000,-0.100000)"
fill="#000000" stroke="none">
<path d="M2677 14583 c-15 -7 -28 -21 -29 -31 -6 -72 19 -134 107 -271 25 -39
58 -99 74 -133 26 -58 75 -196 74 -208 0 -3 4 -16 9 -30 5 -14 18 -68 29 -120
37 -179 59 -360 73 -595 30 -506 52 -1718 31 -1734 -28 -22 -754 -250 -1100
-345 -138 -38 -612 -151 -673 -161 -212 -33 -386 -91 -418 -140 -41 -63 103
-139 396 -210 141 -34 202 -40 355 -39 106 1 147 6 225 28 52 14 194 51 315
81 121 31 234 59 250 64 86 25 396 94 400 89 3 -3 -8 -35 -25 -72 -16 -37 -30
-69 -30 -72 0 -28 -313 -675 -433 -894 -24 -45 -32 -59 -115 -205 -135 -238
-369 -606 -642 -1008 -8 -12 -64 -92 -124 -177 -179 -252 -397 -539 -571 -750
-16 -20 -43 -53 -60 -74 -16 -21 -52 -65 -78 -98 -103 -130 -165 -234 -149
-250 18 -18 55 -1 168 75 136 91 232 164 370 283 526 454 889 844 1249 1344
112 156 217 308 289 420 48 74 96 147 107 162 10 15 19 29 19 32 0 2 19 35 42
72 37 61 73 123 127 219 10 17 39 69 65 118 26 48 49 87 50 87 5 0 -9 -823
-19 -1070 -12 -316 -27 -568 -51 -845 -3 -38 -7 -95 -10 -125 -2 -30 -6 -73
-8 -95 -3 -22 -8 -67 -11 -100 -4 -33 -8 -71 -10 -85 -2 -14 -7 -52 -11 -85
-3 -33 -7 -67 -9 -75 -1 -8 -6 -40 -10 -70 -4 -30 -9 -64 -11 -75 -2 -11 -6
-33 -9 -50 -3 -16 -7 -41 -10 -55 -3 -14 -7 -41 -10 -60 -12 -72 -16 -93 -19
-99 -2 -3 -7 -22 -10 -41 -3 -19 -13 -62 -21 -95 -9 -33 -18 -72 -21 -87 -3
-15 -23 -80 -45 -145 -41 -122 -47 -141 -55 -183 -2 -14 -7 -32 -10 -40 -11
-27 -12 -254 -3 -315 18 -113 24 -138 51 -225 39 -124 127 -315 195 -423 72
-114 151 -145 201 -78 42 57 57 101 124 346 43 160 81 381 93 535 3 41 7 91
10 110 8 63 16 226 20 437 3 115 7 262 10 328 3 66 7 172 9 235 7 160 15 377
21 560 18 542 24 739 31 1010 3 129 7 280 9 335 1 55 3 134 4 176 l1 76 128
-127 c120 -120 271 -243 372 -302 86 -50 215 -75 291 -55 59 14 95 58 122 145
51 166 22 289 -97 403 -95 92 -227 151 -406 183 -19 3 -44 8 -55 10 -11 2 -42
7 -70 10 -27 4 -61 9 -75 11 -23 3 -168 17 -197 18 -10 0 -13 115 -13 541 l0
541 188 53 c207 59 418 131 532 182 144 65 248 167 257 255 6 53 -30 126 -82
168 -74 59 -222 71 -405 33 -41 -8 -86 -17 -100 -20 -14 -2 -88 -18 -165 -36
-77 -17 -147 -33 -155 -35 -8 -2 -27 -6 -42 -10 l-28 -7 4 78 c3 44 8 158 11
254 4 96 8 209 10 250 2 41 6 217 9 390 7 355 14 543 21 580 3 14 7 44 10 67
26 214 84 421 166 589 27 56 55 126 63 155 34 134 -14 253 -136 337 -141 97
-447 204 -675 237 -21 4 -65 11 -98 17 -94 16 -149 17 -178 1z"/>
<path d="M18352 14564 c-49 -40 -29 -121 79 -337 95 -189 140 -334 174 -572 3
-22 10 -65 15 -95 5 -30 12 -82 15 -115 3 -33 7 -76 10 -95 2 -19 7 -65 10
-102 3 -38 7 -96 10 -130 8 -100 14 -203 20 -338 7 -167 14 -312 20 -385 3
-33 7 -112 10 -175 3 -63 8 -158 10 -210 14 -297 27 -746 41 -1405 6 -303 6
-1930 0 -2145 -9 -298 -17 -532 -21 -600 -2 -36 -7 -114 -10 -175 -7 -115 -9
-145 -20 -260 -18 -188 -30 -266 -70 -430 -72 -295 -65 -532 25 -865 57 -208
152 -463 215 -574 57 -102 86 -131 132 -131 48 0 66 13 109 81 54 84 96 225
184 619 21 96 36 194 55 375 23 221 23 788 0 1060 -4 52 -12 165 -20 295 -3
50 -8 119 -10 155 -3 36 -7 124 -11 195 -3 72 -7 157 -9 190 -3 61 -15 370
-20 505 -25 735 -25 2569 0 3365 6 210 16 463 20 538 13 211 15 248 21 327 3
47 7 101 9 120 2 19 6 69 10 110 3 41 8 86 10 100 2 14 6 48 10 75 11 91 13
99 24 169 7 38 14 72 16 76 2 3 6 17 9 31 2 13 12 46 21 72 53 155 -14 286
-205 401 -132 80 -508 235 -649 267 -25 6 -55 13 -66 15 -11 3 -49 7 -85 11
-54 4 -69 2 -88 -13z"/>
<path d="M6448 13856 c-1 -2 -46 -6 -98 -9 -116 -7 -171 -16 -187 -29 -51 -42
60 -214 231 -360 50 -43 102 -88 116 -100 14 -13 59 -52 100 -88 41 -36 81
-72 90 -80 9 -8 38 -35 65 -59 28 -24 82 -73 122 -108 39 -36 84 -76 100 -90
52 -46 173 -121 223 -138 149 -50 235 13 285 210 37 145 45 238 30 330 -11 64
-74 173 -128 220 -49 44 -198 124 -297 160 -211 77 -301 102 -400 111 -30 3
-68 7 -85 10 -16 2 -55 7 -85 10 -30 3 -60 7 -67 9 -6 2 -13 2 -15 1z"/>
<path d="M13352 13540 c-44 -10 -55 -23 -55 -59 0 -42 27 -100 96 -206 33 -49
69 -110 82 -135 67 -134 126 -350 151 -550 2 -19 6 -48 8 -65 5 -30 11 -94 20
-190 27 -290 28 -1334 1 -1565 -2 -19 -6 -84 -10 -145 -3 -60 -8 -130 -10
-155 -2 -25 -7 -78 -10 -117 -3 -40 -7 -90 -9 -110 -3 -21 -7 -72 -11 -113 -3
-41 -8 -91 -10 -110 -2 -19 -6 -62 -9 -95 -9 -90 -17 -167 -21 -195 -2 -14 -6
-50 -10 -80 -10 -99 -23 -210 -30 -260 -8 -54 -14 -110 -20 -165 -3 -27 -7
-61 -10 -75 -2 -14 -7 -45 -10 -70 -35 -267 -114 -620 -196 -875 -120 -375
-324 -785 -567 -1140 -62 -91 -219 -308 -253 -349 -5 -6 -53 -65 -106 -131
-54 -66 -100 -122 -103 -125 -3 -3 -32 -36 -65 -75 -33 -38 -81 -92 -107 -120
-121 -129 -238 -283 -238 -312 0 -29 65 -4 186 71 32 21 119 73 192 117 328
195 583 410 892 755 222 246 429 589 563 929 48 121 149 421 162 480 2 11 18
70 35 132 55 203 135 598 165 813 3 25 8 56 10 70 3 14 7 50 10 80 3 30 8 72
10 93 7 53 13 112 20 187 4 36 8 81 10 100 2 19 6 76 10 125 3 50 8 115 10
145 2 30 7 118 10 195 3 77 8 183 10 235 3 52 7 259 10 460 2 201 7 421 9 490
8 186 16 357 21 430 2 36 7 110 10 165 4 55 8 116 10 135 2 19 6 73 10 119 4
46 8 91 10 100 1 9 6 43 9 76 8 68 10 81 26 185 16 98 34 176 65 279 30 102
32 163 5 233 -44 119 -159 200 -410 291 -254 91 -445 124 -568 97z"/>
<path d="M15813 13475 c-38 -16 -48 -46 -38 -112 8 -52 49 -162 95 -253 55
-109 93 -295 125 -605 11 -116 13 -141 20 -255 3 -63 8 -135 10 -160 27 -310
26 -1759 0 -2110 -2 -30 -7 -107 -10 -170 -4 -63 -8 -142 -11 -175 -7 -98 -14
-187 -19 -235 -10 -107 -17 -177 -21 -205 -2 -16 -6 -50 -9 -75 -9 -73 -15
-123 -20 -150 -2 -14 -7 -45 -10 -70 -4 -25 -10 -63 -15 -85 -5 -22 -12 -56
-15 -75 -3 -19 -13 -64 -21 -100 -31 -141 -42 -265 -39 -440 2 -96 6 -191 9
-210 22 -116 29 -152 47 -219 28 -105 122 -291 174 -345 53 -56 86 -66 133
-40 103 55 190 237 241 504 20 107 36 242 46 390 3 41 7 98 10 125 2 28 7 113
10 190 4 77 9 183 11 235 3 52 7 642 10 1310 5 1473 10 2128 18 2195 3 28 8
68 10 90 3 22 8 63 11 90 4 28 8 59 10 70 20 108 32 156 65 253 31 91 38 124
35 172 -7 126 -102 218 -321 310 -275 116 -361 146 -448 156 -28 4 -53 8 -56
9 -3 2 -20 -3 -37 -10z"/>
<path d="M8538 12274 c-2 -1 -31 -5 -64 -8 -94 -9 -185 -32 -419 -106 -389
-123 -1095 -321 -1235 -347 -14 -2 -45 -9 -70 -14 -25 -6 -54 -12 -65 -15 -11
-2 -92 -19 -180 -39 -88 -19 -207 -44 -264 -55 -58 -12 -107 -23 -110 -24 -3
-2 -28 -7 -55 -10 -27 -4 -52 -9 -56 -11 -3 -2 -25 -6 -50 -10 -25 -4 -47 -8
-50 -10 -4 -2 -29 -7 -56 -11 -27 -3 -52 -8 -55 -10 -3 -2 -21 -6 -40 -9 -19
-3 -225 -44 -459 -90 -234 -46 -454 -89 -490 -95 -74 -13 -120 -30 -137 -51
-44 -54 140 -180 379 -260 121 -41 175 -50 313 -54 132 -4 204 6 385 54 185
49 740 177 945 217 11 2 31 6 45 9 59 13 177 37 205 41 17 3 62 12 100 21 39
8 81 17 95 19 14 3 33 7 42 10 10 3 30 7 45 10 16 3 84 18 153 34 69 16 136
32 150 34 14 2 122 25 240 51 118 26 235 50 260 55 25 4 104 19 175 33 72 15
144 29 160 32 49 8 268 46 300 51 17 2 41 6 55 9 14 3 48 7 75 10 28 4 57 8
65 10 8 2 35 7 60 10 114 15 306 83 362 128 52 41 42 108 -23 169 -74 69 -283
176 -378 193 -14 2 -48 9 -77 15 -45 10 -269 21 -276 14z"/>
<path d="M17228 11608 c-17 -14 -39 -82 -33 -101 2 -7 6 -25 8 -42 9 -60 30
-121 99 -289 39 -94 125 -306 192 -471 128 -314 176 -403 267 -492 52 -52 114
-78 164 -69 74 14 155 136 196 295 26 102 36 291 19 373 -17 82 -68 193 -126
274 -59 84 -196 220 -293 292 -42 31 -78 59 -81 62 -3 3 -30 22 -60 42 -184
120 -304 163 -352 126z"/>
<path d="M14824 11460 c-27 -11 -35 -23 -43 -69 -14 -80 -5 -516 13 -664 2
-15 7 -55 10 -90 7 -64 25 -196 32 -232 2 -11 7 -40 10 -65 3 -25 8 -48 10
-51 2 -3 6 -21 9 -40 30 -174 123 -328 209 -344 61 -12 146 47 199 138 29 49
71 185 81 262 4 28 9 61 11 75 52 306 -9 529 -226 832 -132 183 -248 275 -315
248z"/>
<path d="M12638 11370 c-41 -25 -90 -146 -143 -360 -49 -196 -156 -433 -312
-695 -152 -255 -199 -395 -196 -590 4 -255 143 -476 299 -475 21 0 59 10 84
21 53 24 164 135 204 205 16 27 34 56 41 64 21 28 98 204 132 305 38 113 78
301 89 420 10 103 10 308 0 410 -8 79 -10 99 -21 245 -7 83 -7 85 -30 219 -33
196 -80 270 -147 231z"/>
<path d="M7025 10540 c-73 -16 -118 -54 -180 -149 -77 -119 -185 -201 -370
-282 -70 -31 -281 -94 -365 -109 -30 -6 -66 -12 -80 -15 -85 -19 -283 -10
-335 14 -123 56 -259 103 -365 125 -89 19 -105 8 -104 -66 1 -43 13 -81 54
-173 67 -153 74 -174 99 -291 27 -134 35 -195 47 -369 12 -173 6 -586 -11
-800 -5 -67 -18 -191 -20 -205 -1 -8 -6 -40 -10 -70 -4 -30 -13 -93 -22 -140
-8 -47 -17 -97 -19 -112 -8 -60 -76 -312 -112 -419 -100 -291 -241 -568 -413
-811 -38 -53 -74 -102 -81 -110 -7 -7 -31 -36 -53 -63 -64 -79 -244 -255 -351
-342 -208 -168 -343 -328 -307 -364 48 -48 381 62 608 201 222 136 477 357
639 555 259 316 417 664 512 1130 4 19 49 329 60 410 3 22 7 51 9 65 2 14 6
50 10 80 4 30 8 66 10 80 2 14 6 50 10 80 8 78 17 152 20 170 2 9 6 49 9 91 3
41 8 83 10 95 2 11 7 54 11 95 3 41 8 85 10 99 2 14 7 59 10 100 3 41 8 86 10
100 2 14 7 63 11 110 3 47 8 99 10 115 1 17 6 71 9 120 4 50 8 100 9 112 1 13
6 27 11 32 15 14 336 117 475 152 157 39 276 45 310 14 39 -35 64 -96 78 -190
9 -65 9 -423 -1 -590 -25 -440 -27 -493 -32 -1125 -2 -352 0 -611 5 -650 6
-36 13 -83 16 -105 3 -22 14 -76 25 -120 63 -248 153 -410 324 -581 130 -130
237 -201 450 -294 82 -37 219 -89 260 -100 28 -7 56 -17 63 -23 6 -5 12 -7 12
-4 0 3 15 1 33 -4 72 -21 239 -54 330 -64 26 -3 68 -8 95 -11 58 -7 354 -7
402 0 19 3 66 8 103 11 37 4 76 8 85 10 9 1 37 6 62 10 79 13 93 16 185 36
146 32 284 73 450 134 108 39 288 123 293 137 2 4 9 8 14 8 16 0 118 78 160
124 61 65 83 120 82 201 -2 67 -5 78 -81 225 -43 85 -95 201 -115 256 -31 85
-87 281 -102 358 -3 11 -11 53 -19 91 -9 39 -18 90 -22 115 -3 25 -8 52 -10
60 -2 8 -7 40 -10 70 -4 30 -9 69 -11 85 -5 32 -9 87 -19 230 -10 143 -28 243
-51 271 -14 18 -15 18 -32 -5 -35 -50 -55 -135 -122 -526 -17 -99 -33 -189
-35 -200 -1 -11 -6 -31 -9 -45 -3 -14 -8 -36 -10 -50 -3 -14 -7 -34 -10 -45
-2 -11 -12 -54 -21 -95 -9 -41 -18 -84 -21 -95 -2 -11 -9 -42 -14 -69 -40
-198 -205 -355 -522 -495 -48 -21 -249 -74 -323 -86 -237 -35 -433 -38 -670
-9 -277 34 -481 140 -615 320 -96 129 -144 294 -157 532 -13 231 -6 790 12
972 2 19 6 76 9 125 4 50 8 108 10 130 3 22 7 74 11 115 3 41 8 86 10 100 2
14 6 55 10 92 3 37 7 75 9 85 2 10 7 38 10 63 7 50 9 64 30 165 38 184 70 283
133 410 48 99 106 162 207 229 128 84 165 156 113 218 -33 40 -167 132 -260
179 -104 52 -425 158 -492 162 -27 2 -63 1 -80 -3z"/>
</g>
</svg>
